<?xml version="1.0" ?><svg id="Layer_1" style="enable-background:new 0 0 60 60;" version="1.1" viewBox="0 0 60 60" xml:space="preserve" xmlns="http://www.w3.org/2000/svg" xmlns:xlink="http://www.w3.org/1999/xlink"><path d="M50.58,54V29.78v-6.5c0-0.55-0.45-1-1-1H18.93l29.26-9.12c0.25-0.08,0.46-0.25,0.59-0.49c0.12-0.23,0.15-0.51,0.07-0.76  L46.91,5.7c-0.17-0.53-0.72-0.82-1.25-0.66L10.12,16.12c-0.25,0.08-0.46,0.25-0.59,0.49c-0.12,0.23-0.15,0.51-0.07,0.76l1.89,6.06  v6.35V54c0,0.55,0.45,1,1,1h37.22C50.13,55,50.58,54.55,50.58,54z M48.58,28.78h-6l3.33-4.5h2.67V28.78z M34.56,28.78l3.33-4.5h5.53  l-3.33,4.5H34.56z M26.53,28.78l3.33-4.5h5.53l-3.33,4.5H26.53z M18.51,28.78l3.33-4.5h5.53l-3.33,4.5H18.51z M13.36,28.78v-4.5h6  l-3.33,4.5H13.36z M21.88,14.55l4.52,3.31l-5.28,1.65l-4.52-3.31L21.88,14.55z M29.54,12.16l4.52,3.31l-5.28,1.65l-4.52-3.31  L29.54,12.16z M37.2,9.78l4.52,3.31l-5.28,1.65l-4.52-3.31L37.2,9.78z M46.64,11.55l-2.55,0.79l-4.52-3.31l5.73-1.79L46.64,11.55z   M14.22,16.93l4.52,3.31l-5.73,1.79l-1.34-4.3L14.22,16.93z M48.58,53H13.36V30.78h35.22V53z"/><path d="M28.36,36.02c0,0.55,0.45,1,1,1h13.5c0.55,0,1-0.45,1-1s-0.45-1-1-1h-13.5C28.81,35.02,28.36,35.47,28.36,36.02z"/><path d="M19.08,37.02h6.96c0.55,0,1-0.45,1-1s-0.45-1-1-1h-6.96c-0.55,0-1,0.45-1,1S18.52,37.02,19.08,37.02z"/><path d="M42.86,40.89H19.08c-0.55,0-1,0.45-1,1s0.45,1,1,1h23.78c0.55,0,1-0.45,1-1S43.41,40.89,42.86,40.89z"/><path d="M42.86,46.76h-6.61c-0.55,0-1,0.45-1,1s0.45,1,1,1h6.61c0.55,0,1-0.45,1-1S43.41,46.76,42.86,46.76z"/><path d="M33,46.76H19.08c-0.55,0-1,0.45-1,1s0.45,1,1,1H33c0.55,0,1-0.45,1-1S33.55,46.76,33,46.76z"/></svg>