<svg xmlns="http://www.w3.org/2000/svg" xmlns:se="http://svg-edit.googlecode.com" xmlns:xlink="http://www.w3.org/1999/xlink" xmlns:dc="http://purl.org/dc/elements/1.1/" xmlns:cc="http://creativecommons.org/ns#" xmlns:rdf="http://www.w3.org/1999/02/22-rdf-syntax-ns#" xmlns:inkscape="http://www.inkscape.org/namespaces/inkscape" width="189.5454559326172" height="160" style="">                                    <title>my vector image</title>                                    <!-- Created with Vector Paint - http://www.vectorpaint.yaks.com/ https://chrome.google.com/webstore/detail/hnbpdiengicdefcjecjbnjnoifekhgdo -->                                    <rect id="backgroundrect" width="100%" height="100%" x="0" y="0" fill="#45a1d6" stroke="none" class="" style=""/>                                <g class="currentLayer" style=""><title>Layer 1</title><rect fill="#ebeb1a" stroke="#6d6d6d" stroke-width="0" stroke-linejoin="round" stroke-dashoffset="" fill-rule="nonzero" id="svg_2" x="55.54544448852539" y="55.909088134765625" width="112.72726440429688" height="67.2727279663086" style="color: rgb(0, 0, 0);" class="" fill-opacity="1" stroke-opacity="1"/><path fill="#ecabab" fill-opacity="1" stroke="#6d6d6d" stroke-opacity="1" stroke-width="0" stroke-dasharray="none" stroke-linejoin="round" stroke-linecap="butt" stroke-dashoffset="" fill-rule="nonzero" opacity="1" marker-start="" marker-mid="" marker-end="" d="M16.636358743114982,95.44842327336508 C16.636358743114982,71.49399451048902 36.91687034427022,52.09090721255937 61.95453898767178,52.09090721255937 C86.99220763107331,52.09090721255937 107.27271923222855,71.49399451048902 107.27271923222855,95.44842327336508 C107.27271923222855,119.40285203624114 86.99220763107331,138.80593933417077 61.95453898767178,138.80593933417077 C36.91687034427022,138.80593933417077 16.636358743114982,119.40285203624114 16.636358743114982,95.44842327336508 z" id="svg_1" class=""/><path fill="#abecab" fill-opacity="1" stroke="#484848" stroke-opacity="1" stroke-width="0" stroke-dasharray="none" stroke-linejoin="round" stroke-linecap="butt" stroke-dashoffset="" fill-rule="nonzero" opacity="1" marker-start="" marker-mid="" marker-end="" d="M46.99999378847349,58.59090554066799 C46.99999378847349,35.81340764054292 67.21948236576296,17.36363434144161 92.18181394266355,17.36363434144161 C117.14414551956418,17.36363434144161 137.36363409685362,35.81340764054292 137.36363409685362,58.59090554066799 C137.36363409685362,81.36840344079306 117.14414551956418,99.81817673989437 92.18181394266355,99.81817673989437 C67.21948236576296,99.81817673989437 46.99999378847349,81.36840344079306 46.99999378847349,58.59090554066799 z" id="svg_3" class=""/><path fill="#45a1d6" fill-opacity="1" stroke="#45a1d6" stroke-opacity="1" stroke-width="2" stroke-dasharray="none" stroke-linejoin="round" stroke-linecap="butt" stroke-dashoffset="" fill-rule="nonzero" opacity="1" marker-start="" marker-mid="" marker-end="" id="svg_4" d="M151.01816526139106,100.72727022978887 " style="color: rgb(0, 0, 0);" class=""/><path fill="none" fill-opacity="1" stroke="#45a1d6" stroke-opacity="1" stroke-width="2" stroke-dasharray="none" stroke-linejoin="round" stroke-linecap="butt" stroke-dashoffset="" fill-rule="nonzero" opacity="1" marker-start="" marker-mid="" marker-end="" id="svg_5" d="M116.47271146468904,92.54545222530683 " style="color: rgb(0, 0, 0);" class=""/><path fill="none" fill-opacity="1" stroke="#000000" stroke-opacity="1" stroke-width="2" stroke-dasharray="none" stroke-linejoin="round" stroke-linecap="butt" stroke-dashoffset="" fill-rule="nonzero" opacity="1" marker-start="" marker-mid="" marker-end="" id="svg_6" d="M150.10907437200416,79.81817977389028 " style="color: rgb(0, 0, 0);" class=""/><path fill="#abecab" fill-opacity="1" stroke="#6d6d6d" stroke-opacity="1" stroke-width="0" stroke-dasharray="none" stroke-linejoin="round" stroke-linecap="butt" stroke-dashoffset="" fill-rule="nonzero" opacity="1" marker-start="" marker-mid="" marker-end="" d="M65.81817687677668,21.272724151611328 C65.81817687677668,19.615265588075417 67.54720769813116,18.272724151611328 69.68181365042076,18.272724151611328 C71.81641960271031,18.272724151611328 73.54545042406482,19.615265588075417 73.54545042406482,21.272724151611328 C73.54545042406482,22.93018271514724 71.81641960271031,24.272724151611328 69.68181365042076,24.272724151611328 C67.54720769813116,24.272724151611328 65.81817687677668,22.93018271514724 65.81817687677668,21.272724151611328 z" id="svg_9" class="" transform="rotate(64.0786361694336 69.68234252929688,21.272754669189457) "/><path fill="#abecab" fill-opacity="1" stroke="#6d6d6d" stroke-opacity="1" stroke-width="0" stroke-dasharray="none" stroke-linejoin="round" stroke-linecap="butt" stroke-dashoffset="" fill-rule="nonzero" opacity="1" marker-start="" marker-mid="" marker-end="" d="M106.72726501154227,21.27273178100586 C106.72726501154227,19.615273217469962 108.45629583289679,18.27273178100586 110.59090178518636,18.27273178100586 C112.72550773747594,18.27273178100586 114.45453855883045,19.615273217469962 114.45453855883045,21.27273178100586 C114.45453855883045,22.930190344541764 112.72550773747594,24.27273178100586 110.59090178518636,24.27273178100586 C108.45629583289679,24.27273178100586 106.72726501154227,22.930190344541764 106.72726501154227,21.27273178100586 z" class="" id="svg_15" transform="rotate(73.00908660888672 110.59143066406249,21.27276229858399) "/><path fill="#abecab" fill-opacity="1" stroke="#6d6d6d" stroke-opacity="1" stroke-width="0" stroke-dasharray="none" stroke-linejoin="round" stroke-linecap="butt" stroke-dashoffset="" fill-rule="nonzero" opacity="1" marker-start="" marker-mid="" marker-end="" d="M83.99999226259513,17.636362969875336 C83.99999226259513,15.978904406339424 85.72902308394964,14.63636296987534 87.86362903623922,14.63636296987534 C89.9982349885288,14.63636296987534 91.7272658098833,15.978904406339424 91.7272658098833,17.636362969875336 C91.7272658098833,19.293821533411247 89.9982349885288,20.636362969875336 87.86362903623922,20.636362969875336 C85.72902308394964,20.636362969875336 83.99999226259513,19.293821533411247 83.99999226259513,17.636362969875336 z" class="" id="svg_16" transform="rotate(-77.0835189819336 87.86416625976564,17.636386871337894) "/><path fill="#abecab" fill-opacity="1" stroke="#6d6d6d" stroke-opacity="1" stroke-width="0" stroke-dasharray="none" stroke-linejoin="round" stroke-linecap="butt" stroke-dashoffset="" fill-rule="nonzero" opacity="1" marker-start="" marker-mid="" marker-end="" d="M119.45454884695334,28.545451283454895 C119.45454884695334,26.887992719918998 121.18357966830786,25.545451283454895 123.31818562059743,25.545451283454895 C125.45279157288701,25.545451283454895 127.18182239424146,26.887992719918998 127.18182239424146,28.545451283454895 C127.18182239424146,30.202909846990792 125.45279157288701,31.545451283454895 123.31818562059743,31.545451283454895 C121.18357966830786,31.545451283454895 119.45454884695334,30.202909846990792 119.45454884695334,28.545451283454895 z" class="" id="svg_17" transform="rotate(-38.65077209472656 123.3186950683594,28.545497894287124) "/><path fill="#abecab" fill-opacity="1" stroke="#6d6d6d" stroke-opacity="1" stroke-width="0" stroke-dasharray="none" stroke-linejoin="round" stroke-linecap="butt" stroke-dashoffset="" fill-rule="nonzero" opacity="1" marker-start="" marker-mid="" marker-end="" d="M120.36363229091,6.272727332331954 C120.36363229091,5.368658998005387 121.07558508550812,4.636363647200881 121.95453915291324,4.636363647200881 C122.83349322031839,4.636363647200881 123.54544601491648,5.368658998005387 123.54544601491648,6.272727332331954 C123.54544601491648,7.176795666658506 122.83349322031839,7.909091017463028 121.95453915291324,7.909091017463028 C121.07558508550812,7.909091017463028 120.36363229091,7.176795666658506 120.36363229091,6.272727332331954 z" class="" id="svg_14"/><path fill="#abecab" fill-opacity="1" stroke="#6d6d6d" stroke-opacity="1" stroke-width="0" stroke-dasharray="none" stroke-linejoin="round" stroke-linecap="butt" stroke-dashoffset="" fill-rule="nonzero" opacity="1" marker-start="" marker-mid="" marker-end="" d="M126.63635418627655,17.3181787804387 C126.63635418627655,15.836510570834607 128.12491397806235,14.636359321055295 129.96264211606945,14.636359321055295 C131.8003702540766,14.636359321055295 133.28893004586234,15.836510570834607 133.28893004586234,17.3181787804387 C133.28893004586234,18.799846990042795 131.8003702540766,19.999998239822105 129.96264211606945,19.999998239822105 C128.12491397806235,19.999998239822105 126.63635418627655,18.799846990042795 126.63635418627655,17.3181787804387 z" id="svg_11" class=""/><path fill="#abecab" fill-opacity="1" stroke="#6d6d6d" stroke-opacity="1" stroke-width="0" stroke-dasharray="none" stroke-linejoin="round" stroke-linecap="butt" stroke-dashoffset="" fill-rule="nonzero" opacity="1" marker-start="" marker-mid="" marker-end="" d="M75.72726605151092,9.136360772015848 C75.72726605151092,7.654692562411753 77.21582584329673,6.454541312632443 79.05355398130382,6.454541312632443 C80.89128211931097,6.454541312632443 82.37984191109672,7.654692562411753 82.37984191109672,9.136360772015848 C82.37984191109672,10.618028981619945 80.89128211931097,11.818180231399253 79.05355398130382,11.818180231399253 C77.21582584329673,11.818180231399253 75.72726605151092,10.618028981619945 75.72726605151092,9.136360772015848 z" class="" id="svg_42" transform="rotate(-106.29788208007812 79.0540771484375,9.136360168457035) "/><path fill="#ecabab" fill-opacity="1" stroke="#6d6d6d" stroke-opacity="1" stroke-width="0" stroke-dasharray="none" stroke-linejoin="round" stroke-linecap="butt" stroke-dashoffset="" fill-rule="nonzero" opacity="1" marker-start="" marker-mid="" marker-end="" d="M85.72726119684503,130.36362767219543 C85.72726119684503,128.70616910865954 87.45629201819952,127.36362767219543 89.59089797048912,127.36362767219543 C91.72550392277867,127.36362767219543 93.45453474413318,128.70616910865954 93.45453474413318,130.36362767219543 C93.45453474413318,132.02108623573133 91.72550392277867,133.36362767219543 89.59089797048912,133.36362767219543 C87.45629201819952,133.36362767219543 85.72726119684503,132.02108623573133 85.72726119684503,130.36362767219543 z" class="" id="svg_19"/><path fill="#ecabab" fill-opacity="1" stroke="#6d6d6d" stroke-opacity="1" stroke-width="0" stroke-dasharray="none" stroke-linejoin="round" stroke-linecap="butt" stroke-dashoffset="" fill-rule="nonzero" opacity="1" marker-start="" marker-mid="" marker-end="" d="M6.6363493316106315,119.45453810691833 C6.6363493316106315,117.79707954338244 8.365380152965145,116.45453810691833 10.49998610525472,116.45453810691833 C12.6345920575443,116.45453810691833 14.363622878898811,117.79707954338244 14.363622878898811,119.45453810691833 C14.363622878898811,121.11199667045423 12.6345920575443,122.45453810691833 10.49998610525472,122.45453810691833 C8.365380152965145,122.45453810691833 6.6363493316106315,121.11199667045423 6.6363493316106315,119.45453810691833 z" class="" id="svg_20" transform="rotate(-28.627784729003906 10.500332832336463,119.45472717285158) "/><path fill="#ecabab" fill-opacity="1" stroke="#6d6d6d" stroke-opacity="1" stroke-width="0" stroke-dasharray="none" stroke-linejoin="round" stroke-linecap="butt" stroke-dashoffset="" fill-rule="nonzero" opacity="1" marker-start="" marker-mid="" marker-end="" d="M42.090900074713645,135.8181767463684 C42.090900074713645,134.1607181828325 43.81993089606817,132.8181767463684 45.95453684835775,132.8181767463684 C48.08914280064732,132.8181767463684 49.81817362200184,134.1607181828325 49.81817362200184,135.8181767463684 C49.81817362200184,137.4756353099043 48.08914280064732,138.8181767463684 45.95453684835775,138.8181767463684 C43.81993089606817,138.8181767463684 42.090900074713645,137.4756353099043 42.090900074713645,135.8181767463684 z" class="" id="svg_21"/><path fill="#ecabab" fill-opacity="1" stroke="#6d6d6d" stroke-opacity="1" stroke-width="0" stroke-dasharray="none" stroke-linejoin="round" stroke-linecap="butt" stroke-dashoffset="" fill-rule="nonzero" opacity="1" marker-start="" marker-mid="" marker-end="" d="M69.36363280939383,153.999995470047 C69.36363280939383,152.3425369065111 71.09266363074835,150.999995470047 73.22726958303792,150.999995470047 C75.3618755353275,150.999995470047 77.09090635668201,152.3425369065111 77.09090635668201,153.999995470047 C77.09090635668201,155.6574540335829 75.3618755353275,156.999995470047 73.22726958303792,156.999995470047 C71.09266363074835,156.999995470047 69.36363280939383,155.6574540335829 69.36363280939383,153.999995470047 z" class="" id="svg_23" transform="rotate(67.56392669677734 73.22779846191405,154.00018310546875) "/><path fill="#ecabab" fill-opacity="1" stroke="#6d6d6d" stroke-opacity="1" stroke-width="0" stroke-dasharray="none" stroke-linejoin="round" stroke-linecap="butt" stroke-dashoffset="" fill-rule="nonzero" opacity="1" marker-start="" marker-mid="" marker-end="" d="M19.36362899469657,137.63636016845703 C19.36362899469657,135.97890160492113 21.092659816051082,134.63636016845703 23.227265768340658,134.63636016845703 C25.361871720630226,134.63636016845703 27.090902541984747,135.97890160492113 27.090902541984747,137.63636016845703 C27.090902541984747,139.29381873199293 25.361871720630226,140.63636016845703 23.227265768340658,140.63636016845703 C21.092659816051082,140.63636016845703 19.36362899469657,139.29381873199293 19.36362899469657,137.63636016845703 z" class="" id="svg_24" transform="rotate(-35.07122802734375 23.227630615234332,137.6365509033203) "/><path fill="#ecabab" fill-opacity="1" stroke="#6d6d6d" stroke-opacity="1" stroke-width="0" stroke-dasharray="none" stroke-linejoin="round" stroke-linecap="butt" stroke-dashoffset="" fill-rule="nonzero" opacity="1" marker-start="" marker-mid="" marker-end="" d="M33.27046394665831,131.49586263770317 C33.27046394665831,129.64468535626554 34.99949476801282,128.145231758301 37.1341007203024,128.145231758301 C39.268706672591975,128.145231758301 40.99773749394649,129.64468535626554 40.99773749394649,131.49586263770317 C40.99773749394649,133.3470399191408 39.268706672591975,134.84649351710533 37.1341007203024,134.84649351710533 C34.99949476801282,134.84649351710533 33.27046394665831,133.3470399191408 33.27046394665831,131.49586263770317 z" class="" id="svg_25" transform="rotate(-50.47869873046875 37.13451385498045,131.49603271484375) "/><path fill="#ecabab" fill-opacity="1" stroke="#6d6d6d" stroke-opacity="1" stroke-width="0" stroke-dasharray="none" stroke-linejoin="round" stroke-linecap="butt" stroke-dashoffset="" fill-rule="nonzero" opacity="1" marker-start="" marker-mid="" marker-end="" d="M61.18180526422782,138.54545259475708 C61.18180526422782,136.88799403122118 62.91083608558233,135.54545259475708 65.04544203787191,135.54545259475708 C67.18004799016148,135.54545259475708 68.909078811516,136.88799403122118 68.909078811516,138.54545259475708 C68.909078811516,140.20291115829298 67.18004799016148,141.54545259475708 65.04544203787191,141.54545259475708 C62.91083608558233,141.54545259475708 61.18180526422782,140.20291115829298 61.18180526422782,138.54545259475708 z" class="" id="svg_26"/><path fill="#ecabab" fill-opacity="1" stroke="#6d6d6d" stroke-opacity="1" stroke-width="0" stroke-dasharray="none" stroke-linejoin="round" stroke-linecap="butt" stroke-dashoffset="" fill-rule="nonzero" opacity="1" marker-start="" marker-mid="" marker-end="" d="M28.454539787047338,127.6363605260849 C28.454539787047338,125.978901962549 30.18357060840185,124.6363605260849 32.31817656069144,124.6363605260849 C34.45278251298101,124.6363605260849 36.181813334335516,125.978901962549 36.181813334335516,127.6363605260849 C36.181813334335516,129.2938190896208 34.45278251298101,130.6363605260849 32.31817656069144,130.6363605260849 C30.18357060840185,130.6363605260849 28.454539787047338,129.2938190896208 28.454539787047338,127.6363605260849 z" class="" id="svg_27"/><path fill="#ecabab" fill-opacity="1" stroke="#6d6d6d" stroke-opacity="1" stroke-width="0" stroke-dasharray="none" stroke-linejoin="round" stroke-linecap="butt" stroke-dashoffset="" fill-rule="nonzero" opacity="1" marker-start="" marker-mid="" marker-end="" d="M43.909090410941076,154.90907788276672 C43.909090410941076,153.25161931923083 45.63812123229559,151.90907788276672 47.772727184585165,151.90907788276672 C49.90733313687475,151.90907788276672 51.63636395822925,153.25161931923083 51.63636395822925,154.90907788276672 C51.63636395822925,156.56653644630262 49.90733313687475,157.90907788276672 47.772727184585165,157.90907788276672 C45.63812123229559,157.90907788276672 43.909090410941076,156.56653644630262 43.909090410941076,154.90907788276672 z" class="" id="svg_29" transform="rotate(-57.01655960083008 47.77318572998046,154.9092559814453) "/><path fill="#ebeb1a" fill-opacity="1" stroke="#6d6d6d" stroke-opacity="1" stroke-width="0" stroke-dasharray="none" stroke-linejoin="round" stroke-linecap="butt" stroke-dashoffset="" fill-rule="nonzero" opacity="1" marker-start="" marker-mid="" marker-end="" d="M139.72726156959254,122.86363584218222 C139.72726156959254,121.4321940105155 141.50278709044153,120.2727261268655 143.69479390630443,120.2727261268655 C145.88680072216738,120.2727261268655 147.6623262430163,121.4321940105155 147.6623262430163,122.86363584218222 C147.6623262430163,124.29507767384891 145.88680072216738,125.45454555749893 143.69479390630443,125.45454555749893 C141.50278709044153,125.45454555749893 139.72726156959254,124.29507767384891 139.72726156959254,122.86363584218222 z" id="svg_30" class="" transform="rotate(81.264404296875 143.6953125,122.86381530761716) "/><path fill="#ebeb1a" fill-opacity="1" stroke="#6d6d6d" stroke-opacity="1" stroke-width="0" stroke-dasharray="none" stroke-linejoin="round" stroke-linecap="butt" stroke-dashoffset="" fill-rule="nonzero" opacity="1" marker-start="" marker-mid="" marker-end="" d="M150.6363538766833,134.6818145555039 C150.6363538766833,133.2503727238372 152.4118793975323,132.0909048401872 154.60388621339519,132.0909048401872 C156.79589302925822,132.0909048401872 158.57141855010707,133.2503727238372 158.57141855010707,134.6818145555039 C158.57141855010707,136.1132563871706 156.79589302925822,137.27272427082062 154.60388621339519,137.27272427082062 C152.4118793975323,137.27272427082062 150.6363538766833,136.1132563871706 150.6363538766833,134.6818145555039 z" class="" id="svg_39" transform="rotate(83.97654724121094 154.60440063476562,134.6820068359375) "/><path fill="#ebeb1a" fill-opacity="1" stroke="#6d6d6d" stroke-opacity="1" stroke-width="0" stroke-dasharray="none" stroke-linejoin="round" stroke-linecap="butt" stroke-dashoffset="" fill-rule="nonzero" opacity="1" marker-start="" marker-mid="" marker-end="" d="M178.81817200431544,123.77272403655246 C178.81817200431544,122.34128220488577 180.59369752516443,121.18181432123578 182.78570434102733,121.18181432123578 C184.97771115689036,121.18181432123578 186.7532366777392,122.34128220488577 186.7532366777392,123.77272403655246 C186.7532366777392,125.20416586821918 184.97771115689036,126.3636337518692 182.78570434102733,126.3636337518692 C180.59369752516443,126.3636337518692 178.81817200431544,125.20416586821918 178.81817200431544,123.77272403655246 z" class="" transform="rotate(17.159835815429688 182.78622436523435,123.77290344238284) " id="svg_40"/><path fill="#ebeb1a" fill-opacity="1" stroke="#6d6d6d" stroke-opacity="1" stroke-width="0" stroke-dasharray="none" stroke-linejoin="round" stroke-linecap="butt" stroke-dashoffset="" fill-rule="nonzero" opacity="1" marker-start="" marker-mid="" marker-end="" d="M167.90908196220118,132.86363304076392 C167.90908196220118,131.4321912090972 169.68460748305017,130.2727233254472 171.87661429891307,130.2727233254472 C174.06862111477602,130.2727233254472 175.84414663562495,131.4321912090972 175.84414663562495,132.86363304076392 C175.84414663562495,134.2950748724306 174.06862111477602,135.45454275608063 171.87661429891307,135.45454275608063 C169.68460748305017,135.45454275608063 167.90908196220118,134.2950748724306 167.90908196220118,132.86363304076392 z" class="" transform="rotate(54.337276458740234 171.8771362304688,132.86381530761716) " id="svg_43"/><path fill="#ebeb1a" fill-opacity="1" stroke="#6d6d6d" stroke-opacity="1" stroke-width="0" stroke-dasharray="none" stroke-linejoin="round" stroke-linecap="butt" stroke-dashoffset="" fill-rule="nonzero" opacity="1" marker-start="" marker-mid="" marker-end="" d="M163.45454065908092,116.2727259262042 C163.45454065908092,114.5650413934907 165.01066818951608,113.18181692199278 166.93181328881877,113.18181692199278 C168.85295838812146,113.18181692199278 170.40908591855666,114.5650413934907 170.40908591855666,116.2727259262042 C170.40908591855666,117.98041045891767 168.85295838812146,119.36363493041563 166.93181328881877,119.36363493041563 C165.01066818951608,119.36363493041563 163.45454065908092,117.98041045891767 163.45454065908092,116.2727259262042 z" id="svg_33" class=""/><path fill="#ebeb1a" fill-opacity="1" stroke="#6d6d6d" stroke-opacity="1" stroke-width="0" stroke-dasharray="none" stroke-linejoin="round" stroke-linecap="butt" stroke-dashoffset="" fill-rule="nonzero" opacity="1" marker-start="" marker-mid="" marker-end="" d="M161.63635748624802,120.81817978620529 C161.63635748624802,118.60823503482408 163.65016964094417,116.81817978620529 166.13635748624802,116.81817978620529 C168.62254533155186,116.81817978620529 170.63635748624802,118.60823503482408 170.63635748624802,120.81817978620529 C170.63635748624802,123.0281245375865 168.62254533155186,124.81817978620529 166.13635748624802,124.81817978620529 C163.65016964094417,124.81817978620529 161.63635748624802,123.0281245375865 161.63635748624802,120.81817978620529 z" class="" id="svg_38"/><path fill="#ebeb1a" fill-opacity="1" stroke="#6d6d6d" stroke-opacity="1" stroke-width="0" stroke-dasharray="none" stroke-linejoin="round" stroke-linecap="butt" stroke-dashoffset="" fill-rule="nonzero" opacity="1" marker-start="" marker-mid="" marker-end="" d="M166.18181322379536,93.99999780411065 C166.18181322379536,92.54344324900808 167.50909856213264,91.36363405937493 169.14772243662304,91.36363405937493 C170.78634631111345,91.36363405937493 172.11363164945078,92.54344324900808 172.11363164945078,93.99999780411065 C172.11363164945078,95.45655235921328 170.78634631111345,96.6363615488464 169.14772243662304,96.6363615488464 C167.50909856213264,96.6363615488464 166.18181322379536,95.45655235921328 166.18181322379536,93.99999780411065 z" class="" id="svg_37"/><path fill="#ebeb1a" fill-opacity="1" stroke="#6d6d6d" stroke-opacity="1" stroke-width="0" stroke-dasharray="none" stroke-linejoin="round" stroke-linecap="butt" stroke-dashoffset="" fill-rule="nonzero" opacity="1" marker-start="" marker-mid="" marker-end="" d="M165.27272228761143,104.90908874029458 C165.27272228761143,103.45253418519201 166.6000076259487,102.27272499555886 168.2386315004391,102.27272499555886 C169.87725537492952,102.27272499555886 171.20454071326685,103.45253418519201 171.20454071326685,104.90908874029458 C171.20454071326685,106.3656432953972 169.87725537492952,107.54545248503032 168.2386315004391,107.54545248503032 C166.6000076259487,107.54545248503032 165.27272228761143,106.3656432953972 165.27272228761143,104.90908874029458 z" class="" id="svg_41"/><path fill="#ebeb1a" fill-opacity="1" stroke="#6d6d6d" stroke-opacity="1" stroke-width="0" stroke-dasharray="none" stroke-linejoin="round" stroke-linecap="butt" stroke-dashoffset="" fill-rule="nonzero" opacity="1" marker-start="" marker-mid="" marker-end="" d="M155.27272170511168,121.2727254005996 C155.27272170511168,119.31391075855223 157.05769154767736,117.72727089849388 159.2613580199806,117.72727089849388 C161.46502449228387,117.72727089849388 163.24999433484953,119.31391075855223 163.24999433484953,121.2727254005996 C163.24999433484953,123.23154004264694 161.46502449228387,124.81817990270531 159.2613580199806,124.81817990270531 C157.05769154767736,124.81817990270531 155.27272170511168,123.23154004264694 155.27272170511168,121.2727254005996 z" class="" id="svg_36"/><path fill="#abecab" stroke="#484848" stroke-width="0" stroke-linejoin="round" stroke-dashoffset="" fill-rule="nonzero" marker-start="" marker-mid="" marker-end="" id="svg_8" d="M89.01528735357542,44.78233156402021 C73.95280024950775,44.78233156402021 61.742559364219645,56.99257244930845 61.742559364219645,72.05505955338016 C61.742559364219645,87.11754665744822 73.95280024950775,99.32778754273586 89.01528735357542,99.32778754273586 C104.0777744576472,99.32778754273586 116.28801534293196,87.11754665744822 116.28801534293196,72.05505955338016 C116.28801534293196,56.99257244930845 104.0777744576472,44.78233156402021 89.01528735357542,44.78233156402021 zM110.47468719438206,74.66336366134641 C110.47656367215706,74.66711661689736 110.48219310548382,74.66711661689736 110.48406958325906,74.67086957244823 C110.44278707219942,75.02177091647191 110.38273978338269,75.3651663493912 110.32456897234333,75.71043826008523 C110.29642180570836,75.68792052677998 110.26076872797236,75.66352631569674 110.23637451689129,75.64288506016682 C110.04309730601439,75.4740020603699 109.7597491619128,75.40269590490018 109.63965458427778,75.42709011598097 C109.34504757351988,75.48713740479853 110.06936799487346,75.9994158375178 110.14067415034008,76.06884551520821 C110.15756245031918,76.08573381518728 110.19884496138272,76.12513984847493 110.25701577242145,76.17768122618762 C108.32612014141519,86.14553116972958 99.54420415199795,93.70023069396207 89.01716383135087,93.70023069396207 C81.28044596289811,93.70023069396207 74.50073175995647,89.60950914333394 70.67271709790361,83.4903151173777 C70.90352386429247,83.46029147296713 71.12307176402574,83.46029147296713 71.19813087504684,83.34770280643778 C71.2938312416011,83.20321401772213 71.38953160815235,82.89547166253573 71.53214391909219,82.72658866273976 C71.67663270780434,82.55958214072207 71.84176275204956,82.29687525214666 71.77045659658009,82.1786571522913 C71.69727396333406,82.05856257465587 71.95998085190985,81.5331487975123 71.93558664082563,81.39241296434741 C71.91119242974428,81.24980065340765 71.69727396333406,80.91203465381871 72.05568121845968,80.62868650971318 S72.79501346201391,79.91187199946523 72.81940767309433,79.7955303773841 C72.84192540639981,79.67731227752797 73.13090298383038,79.17441623368654 73.10463229497228,78.93610355619884 C73.0821145616665,78.69779087870758 72.81940767309433,78.41068977905545 72.6542776288494,78.33938362358556 C72.48539462905303,78.26995394589073 72.12886385170569,78.24555973480638 71.98625154076512,78.05603547948037 C71.84176275204956,77.86275826860305 71.4383200303132,77.6751104910529 71.29570771937618,77.72202243543893 C71.15309540843604,77.768934379824 70.91290625316962,77.81584632421362 70.7233819978434,77.69387526880377 C70.53198126473889,77.57753364672288 70.2223624317779,77.4330448580109 70.10414433192209,77.33922096923177 C69.98217327651459,77.24539708045647 69.67443092132888,77.17409092498735 69.53181861039263,77.17409092498735 C69.38732982167629,77.17409092498735 69.40984755497793,77.07651408065998 69.19780556634699,77.36361518031599 C68.9838870999395,77.65071627996849 69.19780556634699,77.74641664652304 68.81500410014024,77.6957517465789 C68.43220263393691,77.65259275774314 68.86191604452912,77.62819854666313 69.07958746649089,77.34109744700758 C69.29162945512225,77.05587282513011 69.05519325540638,76.88698982533397 68.81500410014024,76.96017245857631 C68.5785679004281,77.03147861404612 68.74369794466988,77.17596740276235 68.36277295624295,77.247273558232 C67.98184796781474,77.31482675815106 67.98184796781474,77.0783905584353 68.22016064530183,77.03147861404612 S68.88631025561038,76.77064820325286 68.88631025561038,76.67494783669922 C68.88631025561038,76.57924747014889 68.83939831122392,76.31654058157676 68.6479975781225,76.31654058157676 S68.5035087894067,76.08010438186096 68.21828416752695,75.77048554889977 C68.04564821218236,75.58096129357394 67.8504945235264,75.46274319371776 67.65721731264956,75.38768408269655 C67.48833431285009,74.30120345066972 67.37574564632035,73.19783451866667 67.37574564632035,72.0644419422579 C67.37574564632035,66.72773914869015 69.32540605508322,61.84514397679546 72.53793600676909,58.06967069245506 C72.58297147337811,58.03214113694306 72.62800693999284,58.00587044808665 72.66741297327707,58.002117492539156 C72.82503710642061,57.985229192556304 73.24912108368723,57.95520554814729 73.62441663878883,57.89140530378187 C74.00346514944454,57.827605059413116 74.40878434895683,57.58929238192271 74.54201427101945,57.60430420412598 C74.67149123752775,57.61931602633286 74.99424541491727,57.61931602633286 74.89103913726485,57.52549213755375 C74.78595638183658,57.418532904349846 74.63959111534493,57.19710852683864 74.42191969338398,57.19710852683864 S74.40690787118078,56.8480836605926 74.46507868222312,56.8480836605926 C74.52137301548608,56.8480836605926 74.81410354846842,56.894995604982306 74.7990917262654,57.05449621589817 C74.78595638183658,57.21399682681733 74.88728618171328,57.418532904349846 75.17626375914178,57.35660913775786 C75.46899429212078,57.29280889338902 75.4239588255095,57.05261973812629 75.36766449224717,56.99069597153313 C75.30761720342917,56.92689572716521 75.26445821459114,56.76739511624549 75.20816388132793,56.65668292749115 C75.14999307028535,56.54409426095829 75.16500489248918,56.40148195002118 75.47087076989922,56.36958182783893 C75.774860169531,56.33955818342873 76.19519119124983,56.49530583879643 76.18017936904614,56.2419813391026 S76.18017936904614,55.71656756195877 76.26649734671948,55.57395525101848 C76.35469180216553,55.43321941785358 76.544216057495,55.33564257352731 76.44100977983905,55.28873062913842 C76.34155645774054,55.24181868475209 76.21020301345003,55.352530873506396 76.10699673580093,55.11421819601921 C76.00566693591988,54.875905518527375 76.19519119124983,54.70139308540206 76.30965633555456,54.60569271885136 C76.34718589106375,54.57754555221909 76.43538034651259,54.49310405232207 76.54233957971951,54.39552720799119 C80.07199427546416,51.89605881100407 84.36912838139689,50.41176489057077 89.01528735357542,50.41176489057077 C95.04441044631092,50.41176489057077 100.50308429528869,52.8943449875816 104.42867580166804,56.88561321610542 C104.4136639794636,56.92689572716521 104.40991102391348,56.98319006042781 104.37050499063,56.99069597153313 C104.22601620191386,57.01509018261449 104.05900967989245,57.10891407139311 104.03461546880875,56.894995604982306 C104.010221257728,56.68107713857216 104.010221257728,56.273881461284404 103.84321473570684,56.514070616551486 C103.67620821368625,56.7523832940418 103.60490205821624,56.7523832940418 103.60490205821624,56.87247787167709 C103.60490205821624,56.99069597153313 103.74751436915619,57.11079054916826 103.7006024247698,57.32470901557504 C103.65181400260259,57.538627481985834 103.65181400260259,57.68311627069791 103.72687311362247,57.68311627069791 C103.7944263135426,57.68311627069791 103.96330931333827,57.46732132651502 104.17535130197338,57.418532904349846 C104.3930227239314,57.37162095996132 104.77394771236273,57.2534028601048 104.79834192344595,57.46732132651502 C104.82273613452746,57.68311627069791 105.05917233423985,57.75254594839242 104.82273613452746,57.84824631494661 C104.58254697926101,57.94394668149463 104.32171656846782,57.8970347371079 104.27292814629926,57.75254594839242 C104.22601620191386,57.60805715967678 104.05900967989245,57.60805715967678 103.89200315787178,57.728151737311336 C103.72687311362247,57.8463698371711 103.36846585850087,58.27608324776371 103.36846585850087,58.27608324776371 S102.79426365919187,58.53691365855679 102.72483398150025,58.490001714170475 C102.64977487047966,58.44308976978412 102.91435823682681,58.18038288120953 103.10575896992874,58.06216478135329 C103.2971597030299,57.942070203718785 103.43977201397057,57.67936331514705 103.36846585850087,57.60805715967678 C103.2971597030299,57.53675100420997 103.20333581425515,57.0845198603088 103.25024775864767,56.9644252826776 C103.2971597030299,56.84620718281711 103.51107816944099,56.679200660797115 103.27464196972551,56.55910608316497 C103.03632929223784,56.44088798330928 102.86744629243778,56.29639919459379 102.67792203711146,56.225093039123536 S102.2726028376001,56.51031766100059 102.10559631557848,56.607894505326264 C101.93858979355821,56.70359487187701 101.96298400463773,56.82181297173668 101.7471890604562,56.84620718281711 C101.5332705940457,56.870601393901495 101.3925347608844,57.15582601577867 101.7471890604562,57.32283253779905 C102.10559631557848,57.489839059820575 102.22569089321382,57.60805715967678 102.12999052665918,57.70563400400652 C102.03429016010895,57.80133437055383 101.62897096059967,57.658722059616736 101.62897096059967,57.658722059616736 S101.31935212763946,57.51610974867687 101.12607491675841,57.51610974867687 C100.93655066143215,57.51610974867687 100.69636150616543,57.397891648820426 100.50683725083967,57.373497437736866 C100.31543651773784,57.34910322665603 99.93263505153193,57.34910322665603 99.8406876405317,57.44480359320621 C99.74498727397778,57.54050395976091 99.50479811871465,57.82572858163802 99.31527386338472,57.73002821508721 C99.12574960805824,57.63432784853614 99.12574960805824,57.538627481985834 98.86304271948624,57.63432784853614 C98.60033583091497,57.73002821508721 98.33950542011891,57.56302169306568 98.19689310917825,57.70563400400652 C98.05240432046259,57.84824631494661 98.17249889809806,57.84824631494661 97.71839127642453,57.70563400400652 C97.26616013252307,57.56302169306568 97.36373697684918,57.80133437055383 96.9321470884815,57.87264052602364 S96.2416032670925,57.80133437055383 96.12150868945703,57.94394668149463 C96.00141411182577,58.088435470209745 95.83440758980103,58.35114235878092 95.76497791211068,58.182259358984545 C95.69367175664037,58.017129314739385 96.00141411182577,57.73002821508721 95.8813195341908,57.63432784853614 C95.76497791211068,57.538627481985834 95.26208186827215,57.587415904146866 95.19265219057736,57.658722059616736 C95.11946955733163,57.73002821508721 95.166381501718,57.99273510365816 95.21329344610736,58.088435470209745 C95.26208186827215,58.182259358984545 95.33338802374232,58.56506082519093 95.19265219057736,58.49375466972151 C95.04816340186177,58.42244851425126 95.07255761294273,58.182259358984545 94.92806882422687,58.20853004784471 C94.78545651328977,58.23292425892481 94.61844999126879,58.304230414395796 94.54714383579906,58.35301883655976 C94.47583768032891,58.39993078094613 94.18873658067344,58.39993078094613 94.11743042520571,58.49563114749685 C94.04800074751196,58.59133151405052 94.14370111406299,58.85403840261938 94.0217300586553,58.87655613592854 C93.9035119587957,58.90095034700835 93.80781159224522,58.996650713559404 93.54510470367352,58.829644191538726 C93.28239781510176,58.66263766951836 93.28239781510176,58.75833803606866 93.21109165963142,58.80712645823347 C93.13978550416172,58.85403840261938 92.80577246011985,59.04543913572461 92.78137824903547,58.829644191538726 C92.75698403795835,58.6157257251286 92.82829019342844,58.544419569658714 92.61437172701812,58.39993078094613 C92.39857678283235,58.25731847000604 92.56558330485348,58.25731847000604 92.85268440450564,58.35301883655976 C93.13790902638618,58.44684272533518 93.49631628151204,58.49375466972151 94.01985358087978,58.328624625476 C94.54526735802337,58.16161810345498 94.76106230221014,58.09031194798488 94.54526735802337,57.99461158143409 C94.32947241383802,57.90078769265888 94.11555394742723,57.80508732610445 93.78341738116409,57.756298903943275 C93.44752785934406,57.70938695955685 92.9952967154463,57.70938695955685 92.4698829383022,57.5179862264519 C91.94634563893442,57.326585493350024 91.8262510612997,57.25527933788032 91.61233259488957,57.20836739349143 C91.39653765070753,57.159578971329566 90.08675616339647,56.94566050492299 89.48815975300701,57.04136087147385 C88.89331629816907,57.137061238021104 87.24952176681606,57.56677464861662 87.15194492248945,57.63808080408703 S86.91175576722279,57.99461158143409 86.60401341203703,58.23480073670073 C86.29439457907665,58.47311341419161 85.72206885754744,59.021044924643256 85.26796123587036,59.11674529119478 C84.81573009197199,59.212445657742094 84.29031631482815,59.593370646173085 84.29031631482815,59.6890710127273 C84.29031631482815,59.78477137927889 84.47984057015468,60.14317863440125 84.43292862576546,60.214484789871115 C84.38601668137942,60.28579094534081 84.52675251454106,60.64419820046369 84.79133588088783,60.73989856701795 C85.0521662916874,60.83372245578977 85.50627391336067,60.8112047224848 85.52879164666638,60.66671593377229 C85.55506233552295,60.52410362283208 85.91159311287305,60.214484789871115 85.93598732395378,60.428403256280546 C85.96038153503818,60.64419820046369 86.19869421252507,60.97633476673062 86.14990579036409,61.11894707766994 C86.10299384597761,61.2634358663859 86.14990579036409,61.40604817732589 86.31878879016045,61.38165396624216 C86.48391883440623,61.359136232933594 87.36773986667197,61.16773549983507 87.36773986667197,61.16773549983507 S87.65484096632807,61.047640922200124 87.60605254416296,60.85624018909827 C87.55726412200174,60.66671593377229 87.91754785489972,60.40400904519707 87.98697753259448,60.3327028897268 C88.05828368806407,60.261396734256955 88.32099057663581,59.9742956346049 88.01324822144981,59.8804717458288 C87.69987643293837,59.78477137927889 87.46344023322321,59.760377168197486 87.79745327726808,59.47515254631773 S88.34538478771627,59.47515254631773 88.77509819830861,59.04543913572461 C89.20481160890517,58.6157257251286 88.67939783175837,58.49750762527232 89.13350545343532,58.47311341419161 C89.58573659733361,58.448719203110954 90.06423843009016,58.42620146980225 89.96666158576082,58.56881378074184 C89.87283769698959,58.71142609168282 89.3249061865378,59.022921402419115 89.01341087580008,59.165533713355266 C88.7019155650637,59.31002250207131 88.7507039872294,59.57085291286767 88.87079856486082,59.713465223807674 C88.98901666471936,59.856077534747925 89.03968156465977,60.1900905787866 89.25360003106665,60.14317863440125 C89.4656420197018,60.09626669001144 89.73022538604846,59.92926016799476 89.96666158576082,59.9536543790709 C90.20685074102724,59.97617211238035 90.68535257378817,59.92926016799476 90.75478225147985,59.92926016799476 C90.82796488472538,59.92926016799476 91.16010145099165,60.263273212032516 90.96870071788996,60.3101851564219 C90.77917646255939,60.357097100811586 90.5389873072967,60.33457936750217 90.13366810778531,60.357097100811586 C89.73022538604846,60.381491311891985 89.27799424215085,60.381491311891985 89.27799424215085,60.45279746736182 C89.27799424215085,60.52598010060705 89.82592575259989,60.69111014484965 89.63452501949783,60.8112047224848 C89.4431242863931,60.92942282234048 89.25360003106665,60.78681051140386 89.01341087580008,60.76241630031966 C88.77509819830861,60.73989856701795 88.6324858873691,61.07391161105601 88.56117973189916,61.2634358663859 C88.48799709865668,61.45483659948729 88.67939783175837,61.78884964352912 88.32286705441176,61.66875506589476 C87.96445979928554,61.55053696603839 87.70175291071351,61.55053696603839 87.60792902193849,61.597448910423495 C87.51222865538702,61.64436085481368 87.22700403350704,61.740061221363995 86.98681487824388,61.81136737683431 C86.75037867852821,61.88267353230483 86.8442025673038,61.69314927697848 86.53270725656712,61.69314927697848 C86.22496490138518,61.69314927697848 86.22496490138518,61.69314927697848 86.22496490138518,61.69314927697848 L86.03168769050794,61.71754348805903 C86.03168769050794,61.71754348805903 85.84216343517866,61.59932538820276 85.81776922409762,61.407924655101304 C85.7933750130167,61.21652392199607 85.91159311287305,61.00260545558546 85.7933750130167,60.95569351120029 C85.67328043538204,60.90690508903518 85.24544350256468,60.97821124450612 85.17413734709457,61.12082355544582 C85.10283119162762,61.2634358663859 85.02964855837898,61.52614275495807 85.12534892493014,61.646237332590005 C85.22292576925939,61.76445543244833 85.5081503911364,62.002768109939076 85.24544350256468,61.93146195446882 C84.98273661399334,61.86015579899957 84.65060004772336,61.83576158791851 84.45919931462149,61.98025037663106 C84.26967505929532,62.12286268757135 83.93566201525327,62.43248152053185 83.93566201525327,62.43248152053185 S83.33894208263936,62.4793934649187 83.33894208263936,62.62388225363367 C83.33894208263936,62.76837104234589 83.33894208263936,62.957895297675186 83.12502361622931,62.98228950875666 C82.90922867204733,63.00668371984042 82.62212757239142,63.07611339753142 82.33690295051427,63.12490181969664 C82.04980185085813,63.171813764085975 82.07607253971463,63.29003186394209 81.7420594956761,63.316302552798604 S81.35925802946963,63.48330907481896 81.67075334020659,63.53022101920838 C81.98037217316477,63.57713296359445 82.45512105037064,63.768533696699365 82.4795152614548,63.982452163110864 C82.5057859503111,64.19637062951654 82.45512105037064,64.43655978478311 82.33690295051427,64.65047825119379 C82.25621440616719,64.79871999545638 81.76457722898144,64.69926667335474 81.47747612932552,64.69926667335474 C81.19225150744923,64.69926667335474 80.62180226369196,64.6035663068002 80.38161310842531,64.69926667335474 C80.14330043093433,64.79496703990542 80.19021237532392,65.27159239488435 80.26151853079345,65.48551086129491 C80.33470116403883,65.69942932770492 80.23900079748812,65.81952390533682 80.14330043093433,65.89083006080591 C80.04760006438332,65.96213621627646 80.02132937552668,66.1760546826869 80.14330043093433,66.2736315270132 C80.26151853079345,66.36933189356381 80.35721889734425,66.58325035997372 80.45479574167094,66.60764457105495 C80.55049610822168,66.63203878213642 80.85823846340729,66.53633841558522 80.97833304103929,66.65455651544471 C81.09842761867009,66.77465109307563 81.21664571853292,67.05987571495318 81.2879518739999,66.98856955948325 C81.36113450724537,66.91726340401566 81.45495839602039,66.60764457105495 81.57505297365581,66.67707424874604 C81.69514755128729,66.7502568819916 81.98037217316477,66.65455651544471 82.19616711734906,66.6301623043605 S82.52830368361622,66.36745541579205 82.74409862780115,66.24736083815363 C82.95801709420876,66.12914273829759 82.83792251657724,66.12914273829759 82.76849283888193,65.98465394958535 C82.69718668341255,65.84204163864543 82.98241130529317,65.67503511662434 83.1512943050895,65.50802859460298 C83.31642434933077,65.34102207257851 83.62604318229238,65.48363438351947 83.69922581553803,65.29223365041709 C83.77053197100791,65.1008329173161 83.79492618208876,64.76869635104913 83.9825739596401,64.79121408435475 C84.17585117051956,64.81560829543555 84.43855805909175,64.9338263952953 84.60368810333738,64.9338263952953 C84.77069462535827,64.9338263952953 85.12722540270926,64.6711195067196 85.2266787248069,64.62420756233368 C85.3205026135821,64.57729561794692 85.67890986870799,64.59981335124934 85.72769829087439,64.81560829543555 C85.77461023525821,65.02952676184607 86.17992943477046,65.29223365041709 86.27562980132159,65.33914559480314 C86.37133016787233,65.38605753919242 86.9905678337953,65.5774582722939 87.08814467812057,65.64876442776522 C87.18196856689983,65.72007058323437 87.32458087783706,65.9358655274172 87.37336929999756,66.12538978274657 C87.42028124438778,66.31679051584808 87.58728776640858,66.31679051584808 87.61355845526415,66.14978399382767 C87.63607618857255,65.98277747180985 87.49158739985744,65.67315863884839 87.66047039965395,65.69567637215387 C87.82560044389976,65.72007058323437 88.01887765477976,65.64688794998918 88.01887765477976,65.64688794998918 S87.5628935553281,65.33726911702765 87.3977635110826,65.26596296156178 C87.2326334668335,65.19465680609139 86.91926167832429,65.05204449515088 86.77664936738452,64.81373181766011 C86.63403705644453,64.57541914017155 86.27562980132159,64.52663071800761 86.30002401240638,64.29019451829186 C86.32441822348676,64.05188184080114 86.65843126752885,64.19449415174101 86.84795552285463,64.38589488484281 C87.03935625595618,64.57729561794692 87.51598161093796,64.83812602874073 87.68298813295877,65.00513255076447 C87.84811817720431,65.17213907278511 88.11270154355178,65.24344522825619 88.18400769902192,65.45924017243816 C88.25719033226737,65.67315863884839 88.46923232090276,65.91147131633917 88.54053847637229,66.00717168288651 C88.6118446318424,66.10287204944109 88.85015730933037,66.62828582658551 88.92333994257572,66.74650392644412 C88.99464609804576,66.8647220263004 89.23295877553643,66.72398619313938 89.35305335317085,66.62828582658551 C89.47127145302805,66.53258546003438 89.68894287498573,66.48567351564793 89.71146060829395,66.29427278254308 C89.73585481937496,66.10287204944109 89.42435950863869,65.96025973850146 89.3305356198637,65.88895358303094 C89.23483525331196,65.81764742756137 89.56884829735395,65.7463412720938 89.68894287498573,65.65064090554013 C89.80716097484512,65.55681701676481 90.0210794412561,65.38793401696823 90.11677980780291,65.53242280568372 C90.21248017435703,65.67691159439929 90.16556822996756,66.24736083815363 90.21248017435703,66.34306120470754 C90.25939211874294,66.43876157125825 90.73601747372535,66.58137388219868 90.83359431805492,66.70146845983037 C90.92741820682645,66.81968655968693 91.3346138841145,66.86847498185128 91.4040435618097,66.79716882638449 C91.47722619505471,66.72586267091431 91.85815118348886,66.84595724854965 91.95572802781197,66.86847498185128 C92.04767543881184,66.89286919293164 92.33477653846494,66.82156303746237 92.52617727156942,66.77465109307563 C92.71945448244607,66.72773914869015 92.9089787377762,66.58325035997372 92.88458452669185,66.89286919293164 C92.86019031560731,67.20248802589327 92.78888416014064,67.67911338087526 92.54869500487438,67.91742605836603 C92.31038232738364,68.15573873585339 92.40608269393424,68.27583331348893 92.16964649422235,68.27583331348893 C92.05705782768906,68.27583331348893 91.95760450558717,68.27583331348893 91.87691596123989,68.31523934677259 C91.79998037244354,68.19326829136533 91.69302113923585,68.09569144703967 91.54853235052386,68.13322100255228 C91.26330772864713,68.20452715802149 90.90302399574635,68.20452715802149 90.66658779603043,68.48975177989962 C90.42639864076406,68.7768528795513 90.33257475198853,68.7993706128603 90.28378632982327,68.70367024630613 C90.23687438543776,68.60796987975512 90.9762066289916,68.20265068024273 90.87862978466482,68.08255610260821 C90.7848058958862,67.9643380027519 90.21248017435703,68.01124994714122 89.90098486362045,68.01124994714122 C89.58948955288413,68.01124994714122 89.3286591420886,67.81984921403985 89.0884699868215,67.77293726965004 C88.85203378710536,67.72602532526076 88.54053847637229,68.01124994714122 88.3041022766568,68.24956262463293 C88.06391312139016,68.48787530212367 87.89878307714206,68.3208687800995 87.68298813295877,68.3208687800995 C87.46719318877402,68.3208687800995 87.06187398926514,68.01124994714122 87.06187398926514,68.01124994714122 S86.65655478975324,67.84424342512078 86.48954826772855,67.84424342512078 C86.32441822348676,67.84424342512078 85.98852870166883,67.53462459215976 85.89282833511498,67.53462459215976 C85.79900444634319,67.53462459215976 85.53629755776824,67.31882964797728 85.72769829087439,67.22312928142304 C85.91722254619924,67.12930539264786 86.10674680152529,67.31882964797728 85.91722254619924,66.79341587083006 C85.72769829087439,66.26987857146213 85.2979848802771,66.38809667131837 85.13097835826001,66.45940282678819 C84.96584831401108,66.53258546003438 83.77240844878368,66.50631477117749 83.67670808223264,66.50631477117749 C83.58100771568182,66.50631477117749 82.89046389428987,66.74462744866563 82.67654542788283,66.84032781521944 C82.45887400592143,66.93602818177013 82.07982549526889,67.05612275940182 81.9841251287154,67.10303470379115 C81.88842476216797,67.14994664818094 81.38740519610195,67.00733433724004 81.17161025191525,67.127428914872 C80.88826210781352,67.28505304801617 80.62555521924283,67.53274811438429 80.55237258599995,67.53274811438429 C80.48106643053042,67.53274811438429 80.26527148634452,67.69975463640489 80.12265917540397,68.05816189153111 C79.9781703866886,68.41469266887805 80.14705338648525,68.724311501839 79.88247002013784,68.84440607947127 C79.62163960934095,68.96262417932702 79.14313777658491,69.22720754567746 78.95361352125806,69.41673180100393 C78.76221278815609,69.60625605632949 78.52390011066547,70.2761586221887 78.28746391094961,70.5857774551507 C78.0491512334589,70.89539628810762 78.28746391094961,71.18062090998727 78.33437585533898,71.37202164309305 C78.38128779972526,71.56154589841572 78.54829432174621,71.91995315354191 78.28746391094961,72.25584267535936 C78.02475702237739,72.58985571940086 78.0491512334589,72.75498576364619 77.92905665582711,72.77937997473073 C77.81083855596758,72.80377418581094 78.04727475568298,72.89759807458634 78.09418670007268,73.13591075207808 C78.14109864445888,73.37609990734391 77.88026823366198,73.6144125848348 78.33437585533898,73.82833105124242 C78.78660699923687,74.04037303987639 79.00052546564719,74.23552672852945 79.11874356550373,74.51699839485504 C79.23883814313471,74.80409949451061 79.83555807574871,75.28072484949347 79.83555807574871,75.28072484949347 S80.26527148634452,75.66540279347225 80.48106643053042,75.83053283772095 C80.69498489693711,75.99753935973854 80.76629105240696,75.90183899318734 80.81320299679335,75.73670894894175 C80.86011494118279,75.56782594914614 81.14721604083836,75.54155526028974 81.47935260710136,75.54155526028974 C81.81336565114621,75.54155526028974 82.05167832863398,75.61661437130999 82.3856913726764,75.56782594914614 C82.71970441671846,75.52091400476277 83.05371746076344,75.30324258279893 83.17381203839412,75.25633063840928 C83.29203013825463,75.20941869402283 83.69734933776249,74.94858828322661 84.00509169294853,75.13811253855286 C84.31658700368496,75.33138974942995 84.26967505929532,75.59034368245113 84.43668158131635,75.761103160026 C84.60181162556148,75.92623320426813 84.88703624743907,75.83053283772095 85.10283119162762,75.66540279347225 C85.31674965803157,75.4965197936755 85.22292576925939,75.56782594914614 85.48375618005552,75.71231473786105 C85.74646306862815,75.853050571023 85.86655764625918,75.99566288196344 85.6282449687681,76.21333430392413 C85.38805581350128,76.42537629255914 85.53254460221743,76.76314229214796 85.38805581350128,77.0952788584146 C85.24544350256468,77.42929190245655 85.26983771364527,77.47620384684622 85.53254460221743,77.61693968001077 C85.7952514907922,77.75955199095088 86.27187684577058,78.64524950099226 86.41448915671106,78.81413250078813 C86.5589779454233,78.97926254503376 86.36757721232135,79.45588790001568 86.53458373434631,79.74298899967182 C86.70159025636339,80.02633714377374 86.8685967783849,80.2196143546502 86.67907252305835,80.36410314336607 C86.48579531218095,80.50483897652728 86.153658745915,80.76942234287839 86.13114101260621,81.24604769785678 S86.22684137916023,82.05480961910496 86.32254174571096,82.22369261890127 S86.65467831197786,82.84480676259972 86.77477288960908,83.00993680684488 C86.89486746724404,83.17694332886303 87.03747977818088,83.5822625283776 87.05999751148967,83.8449694169494 C87.08439172256949,84.10767630552093 87.01496204487574,84.41917161625754 87.13318014473523,84.55990744942206 C87.25327472236663,84.70251976036292 87.32458087783706,84.91831470454493 87.53849934424318,85.10783895987146 C87.75429428842962,85.30111617075083 87.8237239661238,85.70455889248457 87.8237239661238,85.70455889248457 S87.89690659936632,85.8715654145052 87.91942433267424,86.13427230307691 C87.94194206598372,86.39697919165233 87.96633627706049,86.56210923589757 88.20464895455133,86.68220381352903 C88.44108515426713,86.8004219133854 88.60809167629162,86.82481612446928 88.73006273169926,86.70659802461357 C88.8482808315542,86.58837992475398 89.44500076416851,86.56210923589757 89.75461959712935,86.58837992475398 C90.06423843009016,86.61277413583483 90.42076920743797,86.44764409158914 90.73226451817435,86.23184914740656 S91.49599097280858,85.4456049594673 91.66299749482927,85.27859843744322 C91.83000401685071,85.1097154376465 92.21092900528154,84.80009660468491 92.16589353867145,84.61057234935936 C92.11898159427838,84.42104809403254 92.02140474995545,84.22964736092767 92.21092900528154,84.13394699437704 C92.40232973838349,84.03637015005074 92.8564373600565,83.84872237250029 92.87895509336533,83.70423358378424 C92.90334930444662,83.55974479506884 92.71007209356873,82.9630248624555 92.66316014917997,82.84668324037509 C92.61812468256912,82.72658866273976 92.78325472681077,82.50891724077843 92.97277898214071,82.27248104106653 C93.16605619301761,82.0322918857999 93.76277612563165,81.8671618415544 93.85660001440968,81.77146147500366 C93.95230038096125,81.67200815290205 94.2150072695323,81.27044190894071 94.26379569169394,80.95894659820418 C94.3088311583083,80.64557480969225 94.16809532514681,80.26652629904041 94.26379569169394,80.10139625479428 C94.35761958047317,79.93251325499814 94.28818990277794,79.79177742183306 94.07051848081676,79.59850021095714 C93.85660001440968,79.40709947785173 93.9035119587957,78.83477375631821 93.83220580332627,78.74094986754301 C93.76277612563165,78.64524950099226 93.80781159224522,78.1423534571533 93.95042390318527,78.0935650349894 C94.09303621412576,78.050406046154 94.40453152485875,77.57002773562148 94.59593225796428,77.35610926921427 C94.7873329910651,77.14219080280428 95.33526450151832,76.47416471472053 95.59797139008568,76.42537629255914 C95.85880180088542,76.37846434816983 96.26412100039451,75.99566288196344 96.28851521147848,75.78174441555306 C96.31290942256192,75.56594947137017 97.00157676617253,74.75531107234625 97.0278474550316,74.59018102810118 C97.05224166611652,74.42129802830773 97.33934276576866,73.80206036238526 97.21924818813388,73.65757157367018 C97.10290656605302,73.51495926272963 96.1702971116221,73.87336651785579 96.05207901176233,73.92215494001724 C95.9319844341314,73.96906688440676 95.5998478678615,74.16046761750881 95.21516992388239,74.13419692865261 C94.83612141323005,74.10980271757107 95.00125145747234,73.80206036238526 94.97685724639243,73.65757157367018 C94.95433951308638,73.51495926272963 94.54902031357429,72.96702775227773 94.45331994702363,72.94263354120041 C94.35761958047317,72.92011580789139 94.07239495859558,72.63113823046417 93.95230038096125,72.34779008635867 C93.83408228110224,72.06068898670696 93.6670757590801,71.7041582093561 93.47567502597914,71.48836326517402 C93.28427429287733,71.2744447987635 93.16605619301761,70.77530171047592 92.97277898214071,70.43941218865895 C92.78325472681077,70.105399144617 92.61812468256912,69.67568573402384 92.4492416827731,69.36606690106323 C92.40983564948533,69.28913131226713 92.36480018287392,69.21782515679634 92.32351767181181,69.14651900133077 C92.54494204932332,69.0921011458383 92.86581974893367,68.99264782373722 92.90522578222514,69.12963070134745 C92.95026124883518,69.29476074559307 93.21484461518243,69.65316800071926 93.26175655957273,69.91587488929102 S93.57137539253318,70.08288141131186 93.5957696036111,70.32119408880278 C93.6220402924701,70.56138324406982 93.85847649218499,71.13370896559879 93.95230038096125,71.20313864329265 C94.04987722528732,71.2744447987635 94.47771415810433,71.65724626496973 94.54902031357429,71.79985857590678 C94.620326469045,71.94247088684689 94.7160268355954,72.13387161995202 94.7873329910651,72.49227887507422 C94.85863914653228,72.84880965242539 94.92994530200231,73.32543500740374 95.12322251288248,73.39674116287382 C95.31462324598452,73.4680473183437 95.9563786452117,73.27664658523888 96.0764732228465,73.20534042976885 S96.98093551064584,72.75123280809525 97.26803661029805,72.72683859701486 C97.55513770995066,72.70432086370938 97.60392613211631,72.51104365282863 97.95858043168744,72.44161397513436 C98.31698768681026,72.37030781966409 98.57969457538519,72.10947740886749 98.81800725287626,71.91620019799109 C99.05631993036403,71.726675942665 99.34342103001957,71.25005058768284 99.43724491879485,71.0830440656624 C99.53482176312058,70.91791402141669 99.77313444061228,70.7978194437848 99.65303986297748,70.60829518845468 C99.53482176312058,70.41501797757822 99.03192571928291,70.13166983347654 98.84052498618107,70.105399144617 C98.64912425307638,70.08288141131186 98.67351846416071,69.77138610057544 98.5553003643011,69.77138610057544 S98.45959999775042,69.93651614482013 98.22128732025938,70.05848720023059 C97.98297464276789,70.176705300087 97.74278548750164,70.41501797757822 97.57577896548399,70.36810603318892 S97.62456738764588,70.20109951117126 97.36373697684918,69.98718104476109 S97.00345324394834,69.72447415618612 97.00345324394834,69.55934411194009 C97.00345324394834,69.3923375899231 96.4817924223559,69.08084227918646 96.43300400019396,68.84252960169539 C96.38421557802928,68.60421692420411 96.78953477754109,68.27020388016258 96.90962935517628,68.48599882434827 C97.0278474550316,68.69991729075512 97.1254242993577,69.0339303347963 97.43316665454441,69.1765426457367 C97.74278548750164,69.31915495667684 98.02988658715685,69.55934411194009 98.17437537587318,69.60625605632949 C98.31698768681026,69.65316800071926 98.67539494193582,69.34354916776081 98.79361304179179,69.3923375899231 C98.91183114165182,69.43737305653354 99.15202029691474,69.86708646712616 99.36781524109999,69.94026910037095 C99.57985722973181,70.01157525584212 100.29667173998317,70.03596946692154 100.41676631761536,70.03596946692154 S101.0360039835337,70.06036367800613 101.13170435008469,69.91775136706603 C101.22740471663585,69.77513905612635 101.29871087210495,69.77513905612635 101.41880544974026,69.77513905612635 C101.53514707182114,69.77513905612635 101.75094201600712,70.2048524667221 101.91982501580367,70.25176441110789 C102.08683153782468,70.29867635549428 102.39645037078186,70.2761586221887 102.37205615970478,70.58765393292613 C102.34953842639639,70.89539628810762 102.51466847064175,71.15997965445851 102.6816749926625,71.18249738776318 C102.85055799245885,71.2050151210686 103.23148298089016,70.82409013264058 103.23148298089016,70.82409013264058 S103.23148298089016,71.4208100652543 103.20896524758173,71.63660500943669 C103.18269455872586,71.84864699807154 103.46979565838097,72.6386441415661 103.46979565838097,72.6386441415661 S103.8263264357278,73.37609990734391 103.92202680227842,73.54310642936477 S104.42304636834106,74.2092560396728 104.42304636834106,74.42505098385917 C104.42304636834106,74.64084592804113 104.4699583127275,74.97485897208345 104.61632357922191,74.97485897208345 C104.75893589015907,74.97485897208345 104.90154820109909,74.59393398365205 105.06667824534469,74.35374482838824 C105.23743772291586,74.11730862867293 105.28434966730217,73.78141910685248 105.3537793449973,73.54310642936477 C105.42508550046686,73.30479375187359 105.42508550046686,72.87508034128142 105.42508550046686,72.70995029703538 C105.42508550046686,72.54106729723614 105.56582133363143,72.39845498629988 105.90358733322462,72.25584267535936 C106.23760037726646,72.11323036441847 106.47403657698169,71.70791116490703 106.75926119885881,71.49211622072495 C107.04636229851488,71.27632127653891 107.02384456520987,70.91979049919186 107.5961702867389,70.91979049919186 C108.16849600827211,70.91979049919186 108.11783110833521,70.91979049919186 108.26231989704745,70.77530171047592 C108.40493220798723,70.63268939953876 108.54566804115265,70.53698903298512 108.6188506743943,70.79969592156026 C108.69015682986438,71.06240281013143 109.09547602938034,71.44332779855928 109.16678218484607,71.53902816511346 C109.23808834031674,71.63660500943669 109.38070065125684,71.89743542023723 109.36005939572335,72.18453651988851 C109.33566518464598,72.4697611417691 109.38257712903227,72.80377418581094 109.50079522888751,72.80377418581094 S109.85920248401428,72.39845498629988 109.85920248401428,72.39845498629988 S110.38273978338269,72.04380068672741 110.36022205007728,72.42284919738026 C110.33395136121705,72.80377418581094 110.4071339944628,73.20909338532331 110.4071339944628,73.44552958503863 C110.4071339944628,73.5449829071407 110.48594606103481,73.69885408472975 110.5722640387082,73.83958991789471 C110.5628816498312,73.95030210664912 110.56475812760593,74.06289077318226 110.55537573872934,74.17360296193705 C110.38461626115826,74.21863842854629 110.38273978338269,74.54514556149022 110.47468719438206,74.66336366134641 zM97.23801296588772,64.66924302894793 C97.38062527682813,64.76306691771937 97.42941369899349,64.9075557064358 97.52323758776876,65.05016801737548 C97.62081443209497,65.19278032831545 97.7859444763405,65.14399190615116 97.90416257619616,65.26408648378627 C98.02238067605543,65.38418106141735 97.57014953215749,65.52679337235737 97.76342674303535,65.66940568329757 C97.95295099836048,65.81389447201045 98.04677488713614,66.38434371576749 98.07304557599603,66.52883250448336 C98.09743978707692,66.67144481541918 97.54950827662486,66.7427509708903 97.38062527682813,66.72023323758818 C97.21361875480738,66.6958390265039 96.71635214429531,66.52883250448336 96.54559266672284,66.48192056009363 C96.37858614470248,66.43313213793266 96.2847622559276,65.83828868309442 96.49868072233429,65.86080641639892 C96.71635214429531,65.88520062747993 96.76326408868465,65.81389447201045 96.99970028839743,65.59997600560311 C97.23988944366366,65.38418106141735 96.64504598882526,65.28848069486625 96.47803946680533,65.2415687504807 C96.31103294478693,65.19465680609139 95.97514342296598,64.66924302894793 95.85692532311043,64.50223650692689 C95.74058370102624,64.33522998490606 95.8306546342502,64.07439957410932 96.12150868945703,63.88112236322898 C96.26412100039451,63.78542199667825 96.64504598882526,63.99934046308783 96.83644672193073,63.88112236322898 C97.02597097725742,63.76290426337303 97.2173717103587,63.61841547465788 97.28867786582782,63.571503530268075 C97.36186049907381,63.52459158588215 97.83848585405578,63.642809685738186 97.90791553174714,63.78542199667825 C97.98109816498945,63.928034307618944 98.26632278687303,64.14382925180422 98.17249889809806,64.21513540727136 C98.07492205377147,64.2864415627409 97.64520864317933,64.35774771821103 97.50447281001475,64.21513540727136 C97.36373697684918,64.07064661855888 97.02597097725742,64.23765314057657 97.00157676617253,64.50036002915128 C96.9753060773199,64.76494339549828 97.09727713272615,64.57354266239648 97.23801296588772,64.66924302894793 zM90.65720540715282,65.0745622284565 C90.51271661843697,65.02765028407052 90.70411735153932,64.74054918441799 90.84860614025442,64.64484881786379 C90.98934197341976,64.54914845131326 91.15634849544087,64.31083577382209 91.30083728415299,64.07252309633435 C91.44344959509309,63.83421041884306 91.63485032819791,63.80981620775968 91.7530684280549,63.83421041884306 C91.87128652791368,63.85860462992363 92.13399341648538,64.2864415627409 92.20529957195525,64.43093035145635 C92.27660572742204,64.57354266239648 92.51491840491676,64.38214192929198 92.61249524924256,64.33522998490606 C92.70631913801431,64.2883180405167 92.85080792673033,64.14382925180422 92.87520213781441,64.02561115194403 S93.1135148153052,63.83421041884306 93.3518274927961,63.83421041884306 S93.3762217038772,64.02561115194403 93.2092151818561,64.07252309633435 C93.04033218206008,64.11943504072018 93.13790902638618,64.21701188504645 93.42125717049134,64.31083577382209 C93.70835827014353,64.40653614037276 93.97106515871508,64.66924302894793 94.28256046945167,64.83437307318974 C94.59217930241326,65.0013795952136 94.63909124679908,65.33539263925553 94.44769051369697,65.3823045836415 C94.258166258368,65.42921652803163 93.68584053683415,65.47800495019649 93.47004559265318,65.4536107391122 C93.25612712624287,65.42921652803163 92.99342023767075,65.21529806162101 92.68380140471258,65.16650963945959 C92.374182571751,65.11959769507065 91.99138110554485,65.14211542837569 91.87128652791368,65.31099842817221 S91.32335501746128,65.40482231695091 91.13007780658447,65.40482231695091 C90.93867707347964,65.40482231695091 90.70224087376378,65.64313499443824 90.6553289293773,65.54931110566635 C90.65720540715282,65.55118758343845 90.79981771809356,65.12335065062163 90.65720540715282,65.0745622284565 zM91.46784380617694,59.779141945952105 C91.58606190603369,59.44512890190675 92.25408799411704,59.85044810142172 92.13399341648538,60.01745462343954 C92.01577531662876,60.1863376232353 91.38715526182973,60.00619575678665 91.46784380617694,59.779141945952105 zM92.39670030505653,76.90387812531304 C92.51491840491676,77.0952788584146 92.13399341648538,77.71264004656156 91.92007495007496,77.66760457995069 C91.70803296144354,77.61693968001077 91.777462639138,77.07088464733398 91.84876879460461,76.95079006970235 C91.92007495007496,76.83069549206725 92.33477653846494,76.80067184766061 92.39670030505653,76.90387812531304 zM83.7405083266009,65.81389447201045 C83.7874202709869,65.71819410545923 83.66732569335527,65.52679337235737 83.50219564910964,65.78950026092913 C83.4459013158434,65.88144767192944 83.69359638221168,65.90959483856462 83.7405083266009,65.81389447201045 zM98.04677488713614,57.10891407139311 C98.31135825348738,57.251526382329835 98.68290085303728,57.309697193371534 98.85928976393588,57.133308282470104 C99.00190207487248,56.99069597153313 98.88368397501658,56.75050681626681 98.76546587516047,56.72798908296158 C98.64537129752549,56.70359487187701 98.57031218650432,56.512194138775634 98.88180749724067,56.34706409453064 C99.19142633020185,56.180057572509526 99.52543937424373,55.964262628323695 99.88384662936626,55.9173506839373 C100.240377406717,55.870438739548376 101.05101580574068,55.846044528467736 101.33624042761814,55.9173506839373 C101.62146504949435,55.990533317183235 102.05305493786655,55.60585537320106 102.1712730377224,55.44072532895532 S101.79034804929462,55.15550070707825 101.6477357383541,55.34502496240418 C101.50324694963908,55.53642569550607 100.81457960602502,55.48763727334522 100.67009081730956,55.44072532895532 C100.52747850636997,55.39381338456984 99.38282706330367,55.63212606206106 99.14639086358787,55.63212606206106 C98.90620170832541,55.63212606206106 98.81050134177447,55.9173506839373 98.4783647755049,56.061839472653254 C98.14247525368715,56.20445178359374 97.69024410978936,56.42024672777572 97.52323758776876,56.49155288324574 C97.35810754352282,56.562859038715835 97.19110102150225,56.8480836605926 97.33371333244236,56.896872082757874 C97.47632564337943,56.94378402714367 97.7859444763405,56.966301760452744 98.04677488713614,57.10891407139311 zM85.52879164666638,65.81389447201045 C85.64888622430125,65.64688794998918 85.4330912801152,65.40669879472627 85.31487318025661,65.40669879472627 C85.08969584719623,65.40669879472627 84.98086013621815,65.76510604984816 85.12159596937883,65.88332414970455 C85.26608475809445,66.0052952051115 85.40869706903486,65.98090099403446 85.52879164666638,65.81389447201045 zM86.60213693426161,66.45752634901262 C86.72223151189341,66.50443829340205 86.81605540067197,66.64892708211782 86.91175576722279,66.67144481541918 C87.00933261154941,66.6958390265039 87.31895144451062,66.67144481541918 87.2251275557352,66.43313213793266 S86.91175576722279,66.19481946044111 86.84232608952874,66.19481946044111 C86.77101993406151,66.19481946044111 86.46140110110102,66.12351330497162 86.34130652346516,66.19481946044111 C86.25311206801624,66.24736083815363 86.48204235663003,66.41061440462758 86.60213693426161,66.45752634901262 zM80.21085363085297,62.59385860922694 C80.40037788618316,62.61825282030735 80.61804930814112,62.475640509367736 80.78317935238616,62.40433435389709 C80.94830939663233,62.333028198426724 81.18849855189832,62.19041588749013 81.18849855189832,61.974620943305304 C81.18849855189832,61.76070247689752 81.14158660751221,61.56930174379217 81.0440097631817,61.47360137724187 C80.94830939663233,61.37790101069115 80.7813028746071,61.353506799606755 80.6386905636705,61.37790101069115 C80.4228956194848,61.41543056619934 80.40037788618316,61.640607899262804 80.25776557524257,61.640607899262804 C80.1151532643022,61.640607899262804 79.94814674228175,61.68751984365216 79.99505868666759,61.85452636567277 S80.13954747538347,62.13975098754987 79.99505868666759,62.21105714302014 C79.85244637573095,62.28423977626573 80.01757641997598,62.57134087591791 80.21085363085297,62.59385860922694 zM81.3798992849998,61.56930174379217 C81.61821196249004,61.66500211034396 82.11923152855351,61.76070247689752 81.92783079545114,61.85640284344862 C81.73643006235018,61.95210320999937 81.40241701830571,62.2129336207956 81.35550507391912,62.357422409511635 S81.76082427342716,62.6445235091637 81.76082427342716,62.6445235091637 S81.616335484715,62.81153003118844 81.73643006235018,62.85844197557356 C81.8546481622058,62.905353919959424 81.92783079545114,62.6914354535497 82.11735505077847,62.6914354535497 C82.30687930610394,62.6914354535497 82.6878042945356,62.80965355341254 82.87920502763748,62.80965355341254 C83.07248223851781,62.80965355341254 83.38022459370022,62.546946664837535 83.35583038261869,62.379940142816466 C83.3314361715375,62.2129336207956 83.09312349404752,61.95022673222379 82.87920502763748,61.85452636567277 C82.66716303900539,61.758825999122024 82.42697388373566,61.32911258852935 82.28436157279893,61.23341222197475 C82.14174926185873,61.13771185542485 82.42697388373566,60.89939917793327 82.25996736171795,60.732392655912655 C82.09108436192166,60.565386133891394 81.97286626206294,60.589780344976106 81.78146552896109,60.46968576734101 C81.59006479585881,60.351467667484684 81.42305827383767,60.4940799784215 81.3048401739786,60.63669228936193 C81.18662207412247,60.77930460030196 81.04213328540632,60.61229807827767 80.89764449669134,60.659210022667054 C80.70624376358974,60.72488674481077 80.77942639683504,60.97070533340421 80.87512676338581,61.088923433259644 C80.97270360771245,61.21089448867003 81.14158660751221,61.47360137724187 81.3798992849998,61.56930174379217 zM105.39506185605998,74.30307992844804 C105.23931420069191,74.37250960613953 105.10796075640796,75.18502448293846 105.39506185605998,75.28072484949347 C105.68028647793716,75.37830169381913 105.84729299996194,74.90167633883725 105.75346911118277,74.77970528343023 C105.6558922668569,74.66336366134641 105.60898032246706,74.20737956189689 105.39506185605998,74.30307992844804 zM96.73511692205034,80.43165634328187 C96.43675695574555,80.34721484338726 96.40298035578321,80.74315165401882 96.1646676782958,81.00585854259346 C95.92447852302992,81.27044190894071 95.6636481122297,81.48248389757256 95.56982422345874,81.45808968649172 C95.4722473791282,81.43369547541108 94.9487100797599,81.62509620851272 95.11571660178086,81.98162698585911 C95.28272312380155,82.34003424098606 95.25832891272117,82.6984414961082 95.09132239069707,82.86732449590389 C94.92431586867622,83.0324545401503 95.2339347016369,83.50907989513243 95.18889923502644,83.77178678370437 C95.14011081286152,84.03261719449988 95.25832891272117,84.2015001942967 95.59234195675974,84.2015001942967 S96.04644957843688,84.08140561666464 96.18906188937633,83.77178678370437 C96.3316742003134,83.46029147296713 96.35419193362185,83.15067264000946 96.49680424455892,82.88984222921304 C96.6412930332745,82.62525886286309 96.76138761090948,82.07545087463488 96.83269376637986,81.93283856369818 C96.90399992184966,81.79210273053312 97.04661223278637,81.33987158663577 97.02409449948082,81.07528822028843 C96.9978238106215,80.81633428726362 96.90399992184966,80.47856828767111 96.73511692205034,80.43165634328187 zM78.49012351070336,58.54817252520933 C78.36064654419131,58.43558385868273 78.06041010011124,58.35677179211074 77.91592131139548,58.34175996990407 C77.77330900045544,58.32674814770049 77.63069668951879,58.45434863643688 77.31357194545517,58.45434863643688 C76.99832367917186,58.45434863643688 76.79003464608807,58.580072647394545 76.66243415735113,58.45434863643688 C76.53483366861755,58.32674814770049 76.00754341369542,58.26294790333212 75.95875499153397,58.34175996990407 C75.89495474716558,58.448719203110954 75.76923073620418,58.45247215866194 75.89495474716558,58.675773013945715 C76.02443171367744,58.897197391457716 76.1201320802288,59.024797880194114 76.23084426898292,59.00978605798774 S76.72248144616816,58.97788593580516 76.7712698683335,59.10548642454229 C76.81818181271956,59.23308691327567 76.94765877922767,59.343799102029614 77.21599510112961,59.26498703546079 C77.4880843785779,59.186174968889226 77.70950875609097,59.13738654672409 77.77143252267958,59.0416861801738 C77.83335628927286,58.94598581362303 78.26494617764395,58.93097399141591 78.26494617764395,58.93097399141591 S78.61584752166513,58.658884713967424 78.49012351070336,58.54817252520933 z" style="color: rgb(0, 0, 0);" class=""/><path fill="#484848" stroke="#484848" stroke-linejoin="round" stroke-dashoffset="" fill-rule="nonzero" marker-start="" marker-mid="" marker-end="" id="svg_31" d="M108.8933421550472,99.54786347632091 C105.42877823517743,98.16142579461287 104.04540112230113,94.35101759652214 104.04540112230113,94.35101759652214 S102.48451101705714,95.21409800764924 102.48451101705714,92.79012749127425 S104.04540112230113,94.35101759652214 105.60629122753728,84.99179810274399 C105.60629122753728,84.99179810274399 109.93393555853808,83.77675227572128 109.07085514740314,73.72890479433279 L108.03026174391239,73.72890479433279 C108.03026174391239,73.72890479433279 110.62868468381566,62.98630818767873 108.03026174391239,59.34729184428832 C105.42877823517743,55.70827550089006 104.39124540051803,53.28430498451516 98.67104225013448,51.54896245575053 S95.03508647557187,50.15946420520312 90.87577343043213,50.33697719756681 C86.71646038529246,50.51142962108371 83.24883589658758,52.760947713934115 83.24883589658758,53.972932972125435 C83.24883589658758,53.972932972125435 80.65041295668794,54.147385395650076 79.61288012202469,55.18797879914857 C78.57228671853377,56.22857220263931 76.84000475860098,61.07651323538177 76.84000475860098,62.29155906240483 S77.7061457385636,71.65077855618283 78.57228671853377,73.38306051611573 L77.54087502154181,73.72890479433279 C76.67473404157133,83.77675227572128 81.00543894140766,84.99179810274399 81.00543894140766,84.99179810274399 C82.56326847781634,94.35101759652214 84.12415858305656,90.36615697490663 84.12415858305656,92.79012749127425 S82.56326847781634,94.35101759652214 82.56326847781634,94.35101759652214 S81.17989136493603,98.16142579461287 77.71532744506989,99.54786347632091 C74.25076352520018,100.93124058919733 55.01814897356624,108.38066513068635 53.454198299490564,109.9415552359266 C51.89024762541893,111.50550590999809 52.06776061777497,118.78047802795486 52.06776061777497,118.78047802795486 L134.5409089823387,118.78047802795486 C134.5409089823387,118.78047802795486 134.72148254353385,111.50550590999809 133.15753186945454,109.9415552359266 C131.59052062655113,108.38066513068635 112.35790607491306,100.93124058919733 108.8933421550472,99.54786347632091 zM70.72804879749175,99.02144563690838 C70.42505248294376,98.47054324682767 70.2750846100874,98.07266929842726 70.2750846100874,98.07266929842726 S68.95291887388166,98.80414524971088 68.95291887388166,96.7505035622288 S70.2750846100874,98.07266929842726 71.59725034629359,90.14273545003817 C71.59725034629359,90.14273545003817 75.2668723780228,89.11438432188135 74.53233585791133,80.5968212573941 L73.65089203377528,80.5968212573941 C73.65089203377528,80.5968212573941 74.08855337700979,78.78802507661747 74.37624684738446,76.51402243309838 C74.36400457205032,75.57136723228821 74.39461026038558,74.56750065479976 74.48948789423832,73.46569587463057 L74.60578950992378,72.16189355142947 C74.54151756441395,70.65609368519668 74.27830864470366,69.28801941648582 73.65089203377528,68.4096361611853 C71.44728247343346,65.32764334553896 70.56583864929732,63.27094108922509 65.72095818538267,61.80186804899472 C60.87607772146794,60.33279500877184 62.635904800908534,60.6235490479817 59.11319007319969,60.77351692083808 C55.58741477665549,60.920424224862586 52.64926869619845,62.82715860832009 52.64926869619845,63.85857030531588 C52.64926869619845,63.85857030531588 50.44565913586035,64.0054776093404 49.56421531172425,64.88692143347264 C48.7348011577638,65.71633558743689 47.40651428389095,69.36147306849823 47.24736470453581,70.65609368519668 L47.24736470453581,71.51611352749985 C47.391211439721346,73.51466497597471 48.036991463654765,79.01144660148576 48.682771487588184,80.30606721818424 L47.80744880112307,80.59988182623367 C47.075972849839204,89.11744489071319 50.74253431274114,90.14579601887003 50.74253431274114,90.14579601887003 C52.06470004894316,98.07572986725876 53.386865785149006,94.69992244357083 53.386865785149006,96.75356413106059 S52.06470004894316,98.07572986725876 52.06470004894316,98.07572986725876 S50.89250218559721,101.31075112459297 47.954356105143795,102.4798884191033 C47.76766140628156,102.55334207112338 47.52893703724342,102.65128027379612 47.244304135700546,102.7614607518186 L47.244304135700546,118.78047802795486 L49.00413121513701,118.78047802795486 C48.915374718959114,114.86907105835205 49.23979501533991,109.82219305140936 51.287315565154564,107.78079363926145 C52.37687806998959,106.69429170325807 55.948561899042296,104.90691950431012 70.72804879749175,99.02144563690838 zM139.0705508563675,71.30493427795778 C138.94812810301505,70.14803925878164 138.6818586144772,69.11662756179292 138.17686475689732,68.4096361611853 C135.97631576539067,65.32458277670713 135.09181137241941,63.27094108922509 130.24999147733993,61.80186804899472 C125.40205044459009,60.33279500877184 127.16493809286595,60.6235490479817 123.63916279632176,60.77351692083808 C120.11644806861287,60.920424224862586 117.17830198815574,62.82715860832009 117.17830198815574,63.85857030531588 C117.17830198815574,63.85857030531588 114.97775299664914,64.0054776093404 114.09324860368173,64.88692143347264 C113.26383444971738,65.71939615626873 111.92330530051429,69.39207875682976 111.77333742765776,70.67445709820163 L111.87433619917007,70.67445709820163 L112.1191817058752,73.46875644346196 C112.18039308255321,74.17574784407 112.1865142202203,74.8031644550023 112.20181706438619,75.44282334126866 C112.47726825943408,77.48116218458485 112.84453651949173,79.57459126690831 113.21180477954566,80.30606721818424 L112.3364820930804,80.59988182623367 C111.60500614179679,89.11744489071319 115.27462817352995,90.14579601887003 115.27462817352995,90.14579601887003 C116.59679390973224,98.07572986725876 117.91589907710288,94.69992244357083 117.91589907710288,96.75356413106059 S116.59373334090039,98.07572986725876 116.59373334090039,98.07572986725876 S116.43152319271034,98.51033064166178 116.0948606209877,99.11020213308637 C130.6937739582415,104.92528291732276 134.23485209895512,106.70041284092902 135.31217232845597,107.78385420809323 C137.36275344710288,109.82525362024097 137.6841131746555,114.86907105835205 137.59535667847362,118.78353859678657 L139.0644297187004,118.78353859678657 L139.0644297187004,102.54416036461339 C139.01546061736008,102.52579695161602 138.94812810301505,102.49825183210838 138.9052801393417,102.4798884191033 C135.9701946277237,101.30769055576145 134.79493619554236,98.07572986725876 134.79493619554236,98.07572986725876 S133.46970989050473,98.80720581854229 133.46970989050473,96.75356413106059 S134.79493619554236,98.07572986725876 136.11404136290912,90.14579601887003 C136.11404136290912,90.14579601887003 138.57473870529037,89.44492575593299 139.06136914986874,84.51128879583628 L139.06136914986874,80.7559708367529 C139.05830858103332,80.70088059775343 139.05830858103332,80.65497206524074 139.0521874433663,80.59988182623367 L138.16768305039875,80.59988182623367 C138.16768305039875,80.59988182623367 138.82570534966231,77.87597556414606 139.06136914986874,74.90416322652212 L139.06136914986874,71.30493427795778 L139.0705508563675,71.30493427795778 z" style="color: rgb(69, 161, 214);" class="" fill-opacity="1"/></g><style xmlns="http://www.w3.org/1999/xhtml">@import url(http://fonts.googleapis.com/css?family=Alata);</style></svg>
